<svg xmlns="http://www.w3.org/2000/svg" width="420" height="140" viewBox="0 0 420 140">
<rect x="8" y="0" width="404" height="140" fill="#fe8019"/><rect x="0" y="8" width="420" height="124" fill="#fe8019"/>
<rect x="10" y="2" width="400" height="136" fill="#282828"/><rect x="2" y="10" width="416" height="120" fill="#282828"/>
<rect x="354" y="10" width="4" height="10" fill="#504945"/>
<rect x="366" y="10" width="4" height="10" fill="#504945"/>
<rect x="378" y="10" width="4" height="10" fill="#504945"/>
<rect x="390" y="10" width="4" height="10" fill="#504945"/>
<rect x="24" y="20" width="3" height="3" fill="#fe8019"/>
<rect x="36" y="20" width="3" height="3" fill="#fe8019"/>
<rect x="24" y="23" width="3" height="3" fill="#fe8019"/>
<rect x="36" y="23" width="3" height="3" fill="#fe8019"/>
<rect x="24" y="26" width="3" height="3" fill="#fe8019"/>
<rect x="36" y="26" width="3" height="3" fill="#fe8019"/>
<rect x="24" y="29" width="3" height="3" fill="#fe8019"/>
<rect x="36" y="29" width="3" height="3" fill="#fe8019"/>
<rect x="24" y="32" width="3" height="3" fill="#fe8019"/>
<rect x="36" y="32" width="3" height="3" fill="#fe8019"/>
<rect x="27" y="35" width="3" height="3" fill="#fe8019"/>
<rect x="33" y="35" width="3" height="3" fill="#fe8019"/>
<rect x="30" y="38" width="3" height="3" fill="#fe8019"/>
<rect x="42" y="20" width="9" height="3" fill="#fe8019"/>
<rect x="45" y="23" width="3" height="3" fill="#fe8019"/>
<rect x="45" y="26" width="3" height="3" fill="#fe8019"/>
<rect x="45" y="29" width="3" height="3" fill="#fe8019"/>
<rect x="45" y="32" width="3" height="3" fill="#fe8019"/>
<rect x="45" y="35" width="3" height="3" fill="#fe8019"/>
<rect x="42" y="38" width="9" height="3" fill="#fe8019"/>
<rect x="54" y="20" width="12" height="3" fill="#fe8019"/>
<rect x="54" y="23" width="3" height="3" fill="#fe8019"/>
<rect x="66" y="23" width="3" height="3" fill="#fe8019"/>
<rect x="54" y="26" width="3" height="3" fill="#fe8019"/>
<rect x="66" y="26" width="3" height="3" fill="#fe8019"/>
<rect x="54" y="29" width="3" height="3" fill="#fe8019"/>
<rect x="66" y="29" width="3" height="3" fill="#fe8019"/>
<rect x="54" y="32" width="3" height="3" fill="#fe8019"/>
<rect x="66" y="32" width="3" height="3" fill="#fe8019"/>
<rect x="54" y="35" width="3" height="3" fill="#fe8019"/>
<rect x="66" y="35" width="3" height="3" fill="#fe8019"/>
<rect x="54" y="38" width="12" height="3" fill="#fe8019"/>
<rect x="72" y="20" width="15" height="3" fill="#fe8019"/>
<rect x="72" y="23" width="3" height="3" fill="#fe8019"/>
<rect x="72" y="26" width="3" height="3" fill="#fe8019"/>
<rect x="72" y="29" width="12" height="3" fill="#fe8019"/>
<rect x="72" y="32" width="3" height="3" fill="#fe8019"/>
<rect x="72" y="35" width="3" height="3" fill="#fe8019"/>
<rect x="72" y="38" width="15" height="3" fill="#fe8019"/>
<rect x="93" y="20" width="9" height="3" fill="#fe8019"/>
<rect x="90" y="23" width="3" height="3" fill="#fe8019"/>
<rect x="102" y="23" width="3" height="3" fill="#fe8019"/>
<rect x="90" y="26" width="3" height="3" fill="#fe8019"/>
<rect x="102" y="26" width="3" height="3" fill="#fe8019"/>
<rect x="90" y="29" width="3" height="3" fill="#fe8019"/>
<rect x="102" y="29" width="3" height="3" fill="#fe8019"/>
<rect x="90" y="32" width="3" height="3" fill="#fe8019"/>
<rect x="102" y="32" width="3" height="3" fill="#fe8019"/>
<rect x="90" y="35" width="3" height="3" fill="#fe8019"/>
<rect x="102" y="35" width="3" height="3" fill="#fe8019"/>
<rect x="93" y="38" width="9" height="3" fill="#fe8019"/>
<rect x="120" y="20" width="12" height="3" fill="#fe8019"/>
<rect x="120" y="23" width="3" height="3" fill="#fe8019"/>
<rect x="132" y="23" width="3" height="3" fill="#fe8019"/>
<rect x="120" y="26" width="3" height="3" fill="#fe8019"/>
<rect x="132" y="26" width="3" height="3" fill="#fe8019"/>
<rect x="120" y="29" width="12" height="3" fill="#fe8019"/>
<rect x="120" y="32" width="3" height="3" fill="#fe8019"/>
<rect x="120" y="35" width="3" height="3" fill="#fe8019"/>
<rect x="120" y="38" width="3" height="3" fill="#fe8019"/>
<rect x="138" y="20" width="9" height="3" fill="#fe8019"/>
<rect x="141" y="23" width="3" height="3" fill="#fe8019"/>
<rect x="141" y="26" width="3" height="3" fill="#fe8019"/>
<rect x="141" y="29" width="3" height="3" fill="#fe8019"/>
<rect x="141" y="32" width="3" height="3" fill="#fe8019"/>
<rect x="141" y="35" width="3" height="3" fill="#fe8019"/>
<rect x="138" y="38" width="9" height="3" fill="#fe8019"/>
<rect x="150" y="20" width="12" height="3" fill="#fe8019"/>
<rect x="150" y="23" width="3" height="3" fill="#fe8019"/>
<rect x="162" y="23" width="3" height="3" fill="#fe8019"/>
<rect x="150" y="26" width="3" height="3" fill="#fe8019"/>
<rect x="162" y="26" width="3" height="3" fill="#fe8019"/>
<rect x="150" y="29" width="12" height="3" fill="#fe8019"/>
<rect x="150" y="32" width="3" height="3" fill="#fe8019"/>
<rect x="150" y="35" width="3" height="3" fill="#fe8019"/>
<rect x="150" y="38" width="3" height="3" fill="#fe8019"/>
<rect x="168" y="20" width="15" height="3" fill="#fe8019"/>
<rect x="168" y="23" width="3" height="3" fill="#fe8019"/>
<rect x="168" y="26" width="3" height="3" fill="#fe8019"/>
<rect x="168" y="29" width="12" height="3" fill="#fe8019"/>
<rect x="168" y="32" width="3" height="3" fill="#fe8019"/>
<rect x="168" y="35" width="3" height="3" fill="#fe8019"/>
<rect x="168" y="38" width="15" height="3" fill="#fe8019"/>
<rect x="186" y="20" width="3" height="3" fill="#fe8019"/>
<rect x="186" y="23" width="3" height="3" fill="#fe8019"/>
<rect x="186" y="26" width="3" height="3" fill="#fe8019"/>
<rect x="186" y="29" width="3" height="3" fill="#fe8019"/>
<rect x="186" y="32" width="3" height="3" fill="#fe8019"/>
<rect x="186" y="35" width="3" height="3" fill="#fe8019"/>
<rect x="186" y="38" width="15" height="3" fill="#fe8019"/>
<rect x="204" y="20" width="9" height="3" fill="#fe8019"/>
<rect x="207" y="23" width="3" height="3" fill="#fe8019"/>
<rect x="207" y="26" width="3" height="3" fill="#fe8019"/>
<rect x="207" y="29" width="3" height="3" fill="#fe8019"/>
<rect x="207" y="32" width="3" height="3" fill="#fe8019"/>
<rect x="207" y="35" width="3" height="3" fill="#fe8019"/>
<rect x="204" y="38" width="9" height="3" fill="#fe8019"/>
<rect x="216" y="20" width="3" height="3" fill="#fe8019"/>
<rect x="228" y="20" width="3" height="3" fill="#fe8019"/>
<rect x="216" y="23" width="6" height="3" fill="#fe8019"/>
<rect x="228" y="23" width="3" height="3" fill="#fe8019"/>
<rect x="216" y="26" width="3" height="3" fill="#fe8019"/>
<rect x="222" y="26" width="3" height="3" fill="#fe8019"/>
<rect x="228" y="26" width="3" height="3" fill="#fe8019"/>
<rect x="216" y="29" width="3" height="3" fill="#fe8019"/>
<rect x="225" y="29" width="6" height="3" fill="#fe8019"/>
<rect x="216" y="32" width="3" height="3" fill="#fe8019"/>
<rect x="228" y="32" width="3" height="3" fill="#fe8019"/>
<rect x="216" y="35" width="3" height="3" fill="#fe8019"/>
<rect x="228" y="35" width="3" height="3" fill="#fe8019"/>
<rect x="216" y="38" width="3" height="3" fill="#fe8019"/>
<rect x="228" y="38" width="3" height="3" fill="#fe8019"/>
<rect x="234" y="20" width="15" height="3" fill="#fe8019"/>
<rect x="234" y="23" width="3" height="3" fill="#fe8019"/>
<rect x="234" y="26" width="3" height="3" fill="#fe8019"/>
<rect x="234" y="29" width="12" height="3" fill="#fe8019"/>
<rect x="234" y="32" width="3" height="3" fill="#fe8019"/>
<rect x="234" y="35" width="3" height="3" fill="#fe8019"/>
<rect x="234" y="38" width="15" height="3" fill="#fe8019"/>
<rect x="24" y="48" width="225" height="2" fill="#504945"/>
<text x="24" y="74" font-family="Consolas, 'Courier New', monospace" font-size="12.5" fill="#a89984">Raw footage in, publish-ready videos out.</text>
<text x="24" y="92" font-family="Consolas, 'Courier New', monospace" font-size="12.5" fill="#a89984">Agent-driven edits: ffmpeg + whisper + music.</text>
<rect x="24" y="104" width="56" height="20" fill="#3c3836"/>
<text x="52.0" y="118" text-anchor="middle" font-family="Consolas, 'Courier New', monospace" font-size="10.5" fill="#bdae93">PYTHON</text>
<rect x="88" y="104" width="56" height="20" fill="#3c3836"/>
<text x="116.0" y="118" text-anchor="middle" font-family="Consolas, 'Courier New', monospace" font-size="10.5" fill="#bdae93">FFMPEG</text>
<rect x="152" y="104" width="63" height="20" fill="#3c3836"/>
<text x="183.5" y="118" text-anchor="middle" font-family="Consolas, 'Courier New', monospace" font-size="10.5" fill="#bdae93">WHISPER</text>
</svg>