<svg xmlns="http://www.w3.org/2000/svg" width="420" height="140" viewBox="0 0 420 140">
<rect x="8" y="0" width="404" height="140" fill="#fabd2f"/><rect x="0" y="8" width="420" height="124" fill="#fabd2f"/>
<rect x="10" y="2" width="400" height="136" fill="#282828"/><rect x="2" y="10" width="416" height="120" fill="#282828"/>
<rect x="354" y="10" width="4" height="10" fill="#504945"/>
<rect x="366" y="10" width="4" height="10" fill="#504945"/>
<rect x="378" y="10" width="4" height="10" fill="#504945"/>
<rect x="390" y="10" width="4" height="10" fill="#504945"/>
<rect x="24" y="20" width="3" height="3" fill="#fabd2f"/>
<rect x="36" y="20" width="3" height="3" fill="#fabd2f"/>
<rect x="24" y="23" width="6" height="3" fill="#fabd2f"/>
<rect x="33" y="23" width="6" height="3" fill="#fabd2f"/>
<rect x="24" y="26" width="3" height="3" fill="#fabd2f"/>
<rect x="30" y="26" width="3" height="3" fill="#fabd2f"/>
<rect x="36" y="26" width="3" height="3" fill="#fabd2f"/>
<rect x="24" y="29" width="3" height="3" fill="#fabd2f"/>
<rect x="30" y="29" width="3" height="3" fill="#fabd2f"/>
<rect x="36" y="29" width="3" height="3" fill="#fabd2f"/>
<rect x="24" y="32" width="3" height="3" fill="#fabd2f"/>
<rect x="36" y="32" width="3" height="3" fill="#fabd2f"/>
<rect x="24" y="35" width="3" height="3" fill="#fabd2f"/>
<rect x="36" y="35" width="3" height="3" fill="#fabd2f"/>
<rect x="24" y="38" width="3" height="3" fill="#fabd2f"/>
<rect x="36" y="38" width="3" height="3" fill="#fabd2f"/>
<rect x="45" y="20" width="9" height="3" fill="#fabd2f"/>
<rect x="42" y="23" width="3" height="3" fill="#fabd2f"/>
<rect x="54" y="23" width="3" height="3" fill="#fabd2f"/>
<rect x="42" y="26" width="3" height="3" fill="#fabd2f"/>
<rect x="54" y="26" width="3" height="3" fill="#fabd2f"/>
<rect x="42" y="29" width="15" height="3" fill="#fabd2f"/>
<rect x="42" y="32" width="3" height="3" fill="#fabd2f"/>
<rect x="54" y="32" width="3" height="3" fill="#fabd2f"/>
<rect x="42" y="35" width="3" height="3" fill="#fabd2f"/>
<rect x="54" y="35" width="3" height="3" fill="#fabd2f"/>
<rect x="42" y="38" width="3" height="3" fill="#fabd2f"/>
<rect x="54" y="38" width="3" height="3" fill="#fabd2f"/>
<rect x="60" y="20" width="15" height="3" fill="#fabd2f"/>
<rect x="66" y="23" width="3" height="3" fill="#fabd2f"/>
<rect x="66" y="26" width="3" height="3" fill="#fabd2f"/>
<rect x="66" y="29" width="3" height="3" fill="#fabd2f"/>
<rect x="66" y="32" width="3" height="3" fill="#fabd2f"/>
<rect x="66" y="35" width="3" height="3" fill="#fabd2f"/>
<rect x="66" y="38" width="3" height="3" fill="#fabd2f"/>
<rect x="78" y="20" width="3" height="3" fill="#fabd2f"/>
<rect x="90" y="20" width="3" height="3" fill="#fabd2f"/>
<rect x="78" y="23" width="3" height="3" fill="#fabd2f"/>
<rect x="90" y="23" width="3" height="3" fill="#fabd2f"/>
<rect x="78" y="26" width="3" height="3" fill="#fabd2f"/>
<rect x="90" y="26" width="3" height="3" fill="#fabd2f"/>
<rect x="78" y="29" width="15" height="3" fill="#fabd2f"/>
<rect x="78" y="32" width="3" height="3" fill="#fabd2f"/>
<rect x="90" y="32" width="3" height="3" fill="#fabd2f"/>
<rect x="78" y="35" width="3" height="3" fill="#fabd2f"/>
<rect x="90" y="35" width="3" height="3" fill="#fabd2f"/>
<rect x="78" y="38" width="3" height="3" fill="#fabd2f"/>
<rect x="90" y="38" width="3" height="3" fill="#fabd2f"/>
<rect x="99" y="20" width="9" height="3" fill="#fabd2f"/>
<rect x="96" y="23" width="3" height="3" fill="#fabd2f"/>
<rect x="108" y="23" width="3" height="3" fill="#fabd2f"/>
<rect x="96" y="26" width="3" height="3" fill="#fabd2f"/>
<rect x="96" y="29" width="3" height="3" fill="#fabd2f"/>
<rect x="102" y="29" width="9" height="3" fill="#fabd2f"/>
<rect x="96" y="32" width="3" height="3" fill="#fabd2f"/>
<rect x="108" y="32" width="3" height="3" fill="#fabd2f"/>
<rect x="96" y="35" width="3" height="3" fill="#fabd2f"/>
<rect x="108" y="35" width="3" height="3" fill="#fabd2f"/>
<rect x="99" y="38" width="9" height="3" fill="#fabd2f"/>
<rect x="117" y="20" width="9" height="3" fill="#fabd2f"/>
<rect x="114" y="23" width="3" height="3" fill="#fabd2f"/>
<rect x="126" y="23" width="3" height="3" fill="#fabd2f"/>
<rect x="114" y="26" width="3" height="3" fill="#fabd2f"/>
<rect x="126" y="26" width="3" height="3" fill="#fabd2f"/>
<rect x="114" y="29" width="15" height="3" fill="#fabd2f"/>
<rect x="114" y="32" width="3" height="3" fill="#fabd2f"/>
<rect x="126" y="32" width="3" height="3" fill="#fabd2f"/>
<rect x="114" y="35" width="3" height="3" fill="#fabd2f"/>
<rect x="126" y="35" width="3" height="3" fill="#fabd2f"/>
<rect x="114" y="38" width="3" height="3" fill="#fabd2f"/>
<rect x="126" y="38" width="3" height="3" fill="#fabd2f"/>
<rect x="132" y="20" width="3" height="3" fill="#fabd2f"/>
<rect x="144" y="20" width="3" height="3" fill="#fabd2f"/>
<rect x="132" y="23" width="6" height="3" fill="#fabd2f"/>
<rect x="141" y="23" width="6" height="3" fill="#fabd2f"/>
<rect x="132" y="26" width="3" height="3" fill="#fabd2f"/>
<rect x="138" y="26" width="3" height="3" fill="#fabd2f"/>
<rect x="144" y="26" width="3" height="3" fill="#fabd2f"/>
<rect x="132" y="29" width="3" height="3" fill="#fabd2f"/>
<rect x="138" y="29" width="3" height="3" fill="#fabd2f"/>
<rect x="144" y="29" width="3" height="3" fill="#fabd2f"/>
<rect x="132" y="32" width="3" height="3" fill="#fabd2f"/>
<rect x="144" y="32" width="3" height="3" fill="#fabd2f"/>
<rect x="132" y="35" width="3" height="3" fill="#fabd2f"/>
<rect x="144" y="35" width="3" height="3" fill="#fabd2f"/>
<rect x="132" y="38" width="3" height="3" fill="#fabd2f"/>
<rect x="144" y="38" width="3" height="3" fill="#fabd2f"/>
<rect x="150" y="20" width="15" height="3" fill="#fabd2f"/>
<rect x="150" y="23" width="3" height="3" fill="#fabd2f"/>
<rect x="150" y="26" width="3" height="3" fill="#fabd2f"/>
<rect x="150" y="29" width="12" height="3" fill="#fabd2f"/>
<rect x="150" y="32" width="3" height="3" fill="#fabd2f"/>
<rect x="150" y="35" width="3" height="3" fill="#fabd2f"/>
<rect x="150" y="38" width="15" height="3" fill="#fabd2f"/>
<rect x="24" y="48" width="141" height="2" fill="#504945"/>
<text x="24" y="74" font-family="Consolas, 'Courier New', monospace" font-size="12.5" fill="#a89984">Turn-based creature battler where every attack</text>
<text x="24" y="92" font-family="Consolas, 'Courier New', monospace" font-size="12.5" fill="#a89984">is gated on a math question. Desktop + Android.</text>
<rect x="24" y="104" width="42" height="20" fill="#3c3836"/>
<text x="45.0" y="118" text-anchor="middle" font-family="Consolas, 'Courier New', monospace" font-size="10.5" fill="#bdae93">JAVA</text>
<rect x="74" y="104" width="56" height="20" fill="#3c3836"/>
<text x="102.0" y="118" text-anchor="middle" font-family="Consolas, 'Courier New', monospace" font-size="10.5" fill="#bdae93">LIBGDX</text>
<rect x="138" y="104" width="63" height="20" fill="#3c3836"/>
<text x="169.5" y="118" text-anchor="middle" font-family="Consolas, 'Courier New', monospace" font-size="10.5" fill="#bdae93">ANDROID</text>
</svg>